PathFileType	4	(X/Y/Z)	D:\Research_projects\MuscleProsody\BulkSports2Dtrack\RetrackedSports2D\p1_sample60_cam1\p1_sample60_cam1_Sports2D\p1_sample60_cam1_Sports2D_m_person00.trc
DataRate	CameraRate	NumFrames	NumMarkers	Units	OrigDataRate	OrigDataStartFrame	OrigNumFrames
60	60	7	22	m	60	292	780
Frame#	Time	Hip			RHip			RKnee			RAnkle			RBigToe			RSmallToe			RHeel			LHip			LKnee			LAnkle			LBigToe			LSmallToe			LHeel			Neck			Head			Nose			RShoulder			RElbow			RWrist			LShoulder			LElbow			LWrist		
		X1	Y1	Z1	X2	Y2	Z2	X3	Y3	Z3	X4	Y4	Z4	X5	Y5	Z5	X6	Y6	Z6	X7	Y7	Z7	X8	Y8	Z8	X9	Y9	Z9	X10	Y10	Z10	X11	Y11	Z11	X12	Y12	Z12	X13	Y13	Z13	X14	Y14	Z14	X15	Y15	Z15	X16	Y16	Z16	X17	Y17	Z17	X18	Y18	Z18	X19	Y19	Z19	X20	Y20	Z20	X21	Y21	Z21	X22	Y22	Z22
292	4.866666666666666	1.8275842364528008	0.702911688422021	0.0301	1.727327791514168	0.7251194272279254	0.0301	1.4805453535222597	0.42791726872163516	0.129	1.2641209874775905	0.17190965614346382	0.023	1.3052898790935124	0.004099887168339716	0.2179	1.2270580716029817	0.03915275423310873	0.1804	1.2015252728508201	0.15828586087745375	-0.0119	1.8809246169573715	0.6349019722199807	0.0301	1.6309398280759577	0.36048397364929324	0.129	1.406448718546938	0.14885170130014758	0.023	1.4466455737920323	-0.0025998886058405044	0.2179	1.4820809201375917	0.01121447465793692	0.1804	1.3449453028414866	0.126181348799322	-0.0119	2.275909489435032	1.1437633333457708	0.0008	2.5479341260396704	1.2900318678737854	0.0655	2.4659175290208983	1.155630569843423	0.1076	2.0699007678003762	1.2026184060612977	-0.01275	1.725026733600863	1.2698386512340396	0.0702	1.4429871935750052	1.41407445549639	0.1076	2.2998064441910744	1.022365990055784	-0.01275	2.2638579373646657	0.890269192898056	0.0702	2.396308597339789	0.7374591924079539	0.1076
293	4.883333333333333	1.828263137530406	0.7045461977643303	0.0301	1.7282008388055128	0.7267878980164654	0.0301	1.4812082808951113	0.42791841902831734	0.129	1.2640731820779587	0.17160243853986798	0.023	1.3049801153878133	0.00340758927611012	0.2179	1.227070010882975	0.03863309512279689	0.1804	1.2016480419003708	0.15839922643023274	-0.0119	1.8817692157923611	0.6367126647356528	0.0301	1.6320550897273456	0.3607016440126698	0.129	1.406987123424703	0.14870872154638604	0.023	1.4471363118084983	-0.003073733392930325	0.2179	1.482298998138691	0.010773690688119598	0.1804	1.345807967949875	0.12657711638069816	-0.0119	2.2739392844070534	1.14551604973872	0.0008	2.5458906321173567	1.2909002061899009	0.0655	2.463583632610968	1.1575614344658596	0.1076	2.070501885485549	1.2059652383470922	-0.01275	1.7345598113596512	1.2857626073887096	0.0702	1.4818671511987218	1.4544575062234621	0.1076	2.3007645297434207	1.022174922212176	-0.01275	2.2922716550612825	0.890812480278423	0.0702	2.4449769748842507	0.7467530198047406	0.1076
294	4.9	1.8286796993846246	0.7061214081469426	0.0301	1.7288820500297828	0.7285972058206183	0.0301	1.4815927140390759	0.4281121112848322	0.129	1.263942456468214	0.17133883251435872	0.023	1.3045570748893098	0.002597791957718557	0.2179	1.2271621387344198	0.0380804666288245	0.1804	1.201797759585366	0.1584785979126476	-0.0119	1.882488862077985	0.6385305881565772	0.0301	1.6330105664092018	0.36086083428496823	0.129	1.407456349497372	0.1484891665250911	0.023	1.447590906112637	-0.0035782706561073574	0.2179	1.4824512582745615	0.010274126541281422	0.1804	1.3467677594367808	0.12690243179118735	-0.0119	2.271557677959635	1.1475663430241332	0.0008	2.5431553078985147	1.2923788215140029	0.0655	2.4607231234913898	1.1599270327241828	0.1076	2.070700018880312	1.2096249471038123	-0.01275	1.7468197249865205	1.2988855846233514	0.0702	1.5313432349044511	1.4867819358108574	0.1076	2.301745223820939	1.0216362014010687	-0.01275	2.321031074935911	0.8897407226456586	0.0702	2.4934551524701454	0.7555521508127174	0.1076
295	4.916666666666667	1.828849399992179	0.7076078736891832	0.0301	1.7293757083412995	0.7305056997994515	0.0301	1.4817270735897978	0.4284995226575903	0.129	1.2637243926030053	0.17111572208401354	0.023	1.3040142374657386	0.0017117526210328078	0.2179	1.2273080015174385	0.03754333744596954	0.1804	1.2019808505380278	0.15850150521588924	-0.0119	1.883076313703704	0.6403160453254693	0.0301	1.6337473212346385	0.36094213157450544	0.129	1.4078454402557228	0.14819607817240596	0.023	1.4479065122375734	-0.004067142493941561	0.2179	1.4824821991353592	0.0097292023902989	0.1804	1.3477784815074259	0.12714202227634092	-0.0119	2.268868279669835	1.1498301150512156	0.0008	2.5398111287389074	1.294415835414158	0.0655	2.4574968088707605	1.1625881770072117	0.1076	2.070557945361135	1.2134551247115044	-0.01275	1.761725793273531	1.3090647170521987	0.0702	1.5904871102071199	1.5103891760199775	0.1076	2.3028110038290124	1.0208673156835688	-0.01275	2.3495247473521492	0.8873160605494133	0.0702	2.5408209498794285	0.7641006766113349	0.1076
296	4.933333333333334	1.8288067600023818	0.708962056890708	0.0301	1.7296705343708554	0.7324491268700128	0.0301	1.4816546789274812	0.42902615488544876	0.129	1.2634236814375293	0.17089149457230685	0.023	1.3033532366419638	0.0008040019662687893	0.2179	1.2274657222334888	0.037081322155973644	0.1804	1.2022312315499752	0.15840399662673066	-0.0119	1.8835243098656662	0.6419993687833142	0.0301	1.6342267196085136	0.36092062425489024	0.129	1.408144330292858	0.14782751625674317	0.023	1.4480268152500722	-0.004509918583623276	0.2179	1.482381865353063	0.009155940021367154	0.1804	1.3487744548691079	0.1272895717738885	-0.0119	2.265964935600808	1.1522267475092254	0.0008	2.5359334949488894	1.296924172083925	0.0655	2.45403686050881	1.165402728701033	0.1076	2.0700976591607887	1.2172853395388112	-0.01275	1.7790724344628381	1.3161154379089655	0.0702	1.6579092473159176	1.5247647746938053	0.1076	2.3039538428915485	1.0199827349513926	-0.01275	2.3771478205508645	0.883774697678702	0.0702	2.5861727312754264	0.7724743376133799	0.1076
297	4.95	1.8286195507866232	0.7101475795052303	0.0301	1.7297823576551468	0.7343922559104469	0.0301	1.4814397634805432	0.4296086320678937	0.129	1.2630522170403125	0.17058322428553724	0.023	1.3025643363458752	-6.0918393700456224e-05	0.2179	1.2275712626491966	0.036750809501592145	0.1804	1.2025951460565372	0.15808143077753917	-0.0119	1.8838924414461806	0.6435378080745282	0.0301	1.6344736036923262	0.3607843699640941	0.129	1.4083400643354207	0.14736264224137066	0.023	1.4479787935545712	-0.004900332946693634	0.2179	1.4821894640581454	0.008577091642506156	0.1804	1.3496739956897565	0.12732516598983393	-0.0119	2.2629598048772652	1.1546933555502734	0.0008	2.531643121233298	1.2997853195548927	0.0655	2.4504307832837045	1.1682611386416621	0.1076	2.0693151082530865	1.2209432053055658	-0.01275	1.7985754382434591	1.319784267066869	0.0702	1.731786374433516	1.5295209871921285	0.1076	2.3051065280868963	1.0190768872524774	-0.01275	2.4032553666438443	0.8793309566587426	0.0702	2.628585915067554	0.7805892483769036	0.1076
298	4.966666666666667	1.8283832486960196	0.7111428924734348	0.0301	1.7297689540230985	0.7363443014234049	0.0301	1.4811692036923665	0.4301616909052351	0.129	1.2626219512678112	0.1701043011616177	0.023	1.3016300316561378	-0.0008077571463545298	0.2179	1.2275614946331885	0.036600901493221025	0.1804	1.2031065532381051	0.1574333226233201	-0.0119	1.88431518749611	0.6449363291154189	0.0301	1.6345831361978502	0.3605432445214819	0.129	1.4084288867542665	0.1467751813609573	0.023	1.4478554458772002	-0.005251461262271814	0.2179	1.481968278510985	0.008020731504318345	0.1804	1.350403631485794	0.12721416381301867	-0.0119	2.2599720521839566	1.1571934832401956	0.0008	2.5271176171233574	1.3028752061617948	0.0655	2.4467294393916115	1.171094939067826	0.1076	2.068209285441659	1.224286341817882	-0.01275	1.8199320905537948	1.3197597757625872	0.0702	1.8099727454804124	1.5243746243211478	0.1076	2.306150369534089	1.0182182452089241	-0.01275	2.427131118136313	0.8741984740773393	0.0702	2.667091258246415	0.7882354890724693	0.1076
